<svg width="80" height="80" viewBox="0 0 80 80" fill="none" xmlns="http://www.w3.org/2000/svg">
<rect width="80" height="80" fill="#33322F"/>
<path d="M58.6875 42.1562H24.1875V25.9844C24.1858 25.3753 24.305 24.772 24.5381 24.2094C24.7711 23.6467 25.1135 23.1359 25.5453 22.7064L25.5812 22.6705C26.258 21.9947 27.1269 21.5444 28.0692 21.3809C29.0115 21.2175 29.9813 21.349 30.8461 21.7575C30.0294 23.1154 29.6899 24.7073 29.8816 26.2802C30.0734 27.8531 30.7853 29.3169 31.9043 30.4388L32.8881 31.4227L31.0772 33.2338L33.11 35.2666L34.921 33.4556L44.9555 23.4212L46.7665 21.6102L44.7336 19.5773L42.9225 21.3883L41.9386 20.4044C40.7607 19.2297 39.2079 18.5056 37.5508 18.3583C35.8938 18.2109 34.2376 18.6496 32.8708 19.598C31.4296 18.6878 29.7216 18.2949 28.0275 18.4837C26.3334 18.6726 24.7539 19.432 23.5484 20.6373L23.5125 20.6732C22.8128 21.3691 22.2581 22.1968 21.8805 23.1084C21.5029 24.0201 21.3098 24.9976 21.3125 25.9844V42.1562H18.4375V45.0312H21.3125V47.7894C21.3124 48.0212 21.3498 48.2514 21.4232 48.4713L24.0977 56.4943C24.2404 56.9238 24.5148 57.2975 24.882 57.5622C25.2492 57.8268 25.6904 57.9691 26.143 57.9687H27.302L26.2539 61.5625H29.2487L30.2969 57.9687H48.9934L50.0715 61.5625H53.0723L51.9941 57.9687H53.8566C54.3093 57.9692 54.7506 57.827 55.1179 57.5623C55.4851 57.2976 55.7596 56.9239 55.9023 56.4943L58.5766 48.4713C58.65 48.2514 58.6875 48.0212 58.6875 47.7894V45.0312H61.5625V42.1562H58.6875ZM33.9373 22.4373C34.7294 21.647 35.8026 21.2031 36.9215 21.2031C38.0405 21.2031 39.1137 21.647 39.9058 22.4373L40.8895 23.4212L34.9212 29.3894L33.9373 28.4057C33.1471 27.6137 32.7032 26.5404 32.7032 25.4215C32.7032 24.3026 33.1471 23.2294 33.9373 22.4373ZM55.8125 47.6726L53.3389 55.0937H26.6611L24.1875 47.6726V45.0312H55.8125V47.6726Z" fill="white"/>
<rect x="2.5" y="3.5" width="74" height="74" stroke="white"/>
</svg>
