<svg width="32" height="32" viewBox="0 0 32 32" fill="none" xmlns="http://www.w3.org/2000/svg">
<rect width="32" height="32" fill="#33322F"/>
<g clip-path="url(#clip0_54_522)">
<path d="M20.1041 13.1919C19.9601 13.1199 19.7441 13.1199 19.6001 13.1919L15.1361 17.7999L13.0481 15.6399C12.9041 15.4959 12.6881 15.4959 12.5441 15.6399C12.4001 15.7839 12.4001 15.9999 12.4721 16.1439L14.8481 18.5199H14.9201C14.9201 18.5199 14.9921 18.5199 14.9921 18.5919H15.2801C15.2801 18.5919 15.3521 18.5919 15.3521 18.5199H15.4241L20.1761 13.6959C20.1761 13.5519 20.1761 13.3359 20.1041 13.1919Z" fill="white"/>
<path d="M16 25C11.032 25 7 20.968 7 16C7 11.032 11.032 7 16 7C20.968 7 25 11.032 25 16C25 20.968 20.968 25 16 25ZM16 7.72C11.464 7.72 7.72 11.464 7.72 16C7.72 20.536 11.464 24.28 16 24.28C20.536 24.28 24.28 20.536 24.28 16C24.28 11.464 20.536 7.72 16 7.72Z" fill="white"/>
</g>
<defs>
<clipPath id="clip0_54_522">
<rect width="18" height="18" fill="white" transform="translate(7 7)"/>
</clipPath>
</defs>
</svg>
