<svg width="32" height="32" viewBox="0 0 32 32" fill="none" xmlns="http://www.w3.org/2000/svg">
<rect width="32" height="32" fill="white"/>
<g clip-path="url(#clip0_52_521)">
<path d="M20.1041 13.192C19.9601 13.12 19.7441 13.12 19.6001 13.192L15.1361 17.8L13.0481 15.64C12.9041 15.496 12.6881 15.496 12.5441 15.64C12.4001 15.784 12.4001 16 12.4721 16.144L14.8481 18.52H14.9201C14.9201 18.52 14.9921 18.52 14.9921 18.592H15.2801C15.2801 18.592 15.3521 18.592 15.3521 18.52H15.4241L20.1761 13.696C20.1761 13.552 20.1761 13.336 20.1041 13.192Z" fill="#33322F"/>
<path d="M16 25C11.032 25 7 20.968 7 16C7 11.032 11.032 7 16 7C20.968 7 25 11.032 25 16C25 20.968 20.968 25 16 25ZM16 7.72C11.464 7.72 7.72 11.464 7.72 16C7.72 20.536 11.464 24.28 16 24.28C20.536 24.28 24.28 20.536 24.28 16C24.28 11.464 20.536 7.72 16 7.72Z" fill="#33322F"/>
</g>
<defs>
<clipPath id="clip0_52_521">
<rect width="18" height="18" fill="white" transform="translate(7 7)"/>
</clipPath>
</defs>
</svg>
