<svg width="80" height="80" viewBox="0 0 80 80" fill="none" xmlns="http://www.w3.org/2000/svg">
<rect width="80" height="80" fill="#33322F"/>
<rect x="2.5" y="3.5" width="74" height="74" stroke="white"/>
<path d="M25.6078 18C25.3542 18 25.1109 18.1008 24.9316 18.2802C24.7522 18.4596 24.6514 18.7028 24.6514 18.9565V22.2894L18.3562 26.7862C18.2324 26.8748 18.1315 26.9918 18.0619 27.1273C17.9924 27.2628 17.9562 27.4129 17.9564 27.5652V31.3913C17.9565 31.645 18.0572 31.8883 18.2366 32.0676C18.4159 32.247 18.6592 32.3478 18.9129 32.3478H39.9542C40.2079 32.3478 40.4511 32.247 40.6305 32.0676C40.8099 31.8883 40.9106 31.645 40.9107 31.3913V27.5652C40.9108 27.4129 40.8747 27.2628 40.8051 27.1273C40.7356 26.9918 40.6347 26.8748 40.5109 26.7862L34.2157 22.2913V18.9565C34.2156 18.7028 34.1149 18.4596 33.9355 18.2802C33.7562 18.1008 33.5129 18 33.2592 18H25.6078ZM26.5643 19.913H32.3028V22.7826C32.3026 22.9349 32.3388 23.0851 32.4083 23.2206C32.4779 23.3561 32.5787 23.473 32.7026 23.5617L38.9978 28.0566V30.4348H19.8693V28.0566L26.1645 23.5617C26.2883 23.473 26.3892 23.3561 26.4587 23.2206C26.5283 23.0851 26.5645 22.9349 26.5643 22.7826V19.913ZM22.2603 38.087C21.6346 38.087 21.1105 38.4869 20.9135 39.0435H17.9564C17.7028 39.0435 17.4595 39.1443 17.2802 39.3237C17.1008 39.503 17 39.7463 17 40V61.0435C17 61.2972 17.1008 61.5404 17.2802 61.7198C17.4595 61.8992 17.7028 62 17.9564 62H62.0436C62.2972 62 62.5405 61.8992 62.7198 61.7198C62.8992 61.5404 63 61.2972 63 61.0435V40C63 39.7463 62.8992 39.503 62.7198 39.3237C62.5405 39.1443 62.2972 39.0435 62.0436 39.0435H37.9536C37.7566 38.4869 37.2325 38.087 36.6067 38.087H22.2603ZM18.9129 40.9565H22.2603H36.6067H40.0458V60.087H18.9129V40.9565ZM41.9586 40.9565H61.0871V46.6957H41.9586V40.9565ZM21.7821 42.8696C21.5285 42.8696 21.2852 42.9704 21.1059 43.1498C20.9265 43.3291 20.8257 43.5724 20.8257 43.8261V57.2174C20.8257 57.4711 20.9265 57.7143 21.1059 57.8937C21.2852 58.0731 21.5285 58.1739 21.7821 58.1739H37.085C37.3386 58.1739 37.5819 58.0731 37.7612 57.8937C37.9406 57.7143 38.0414 57.4711 38.0414 57.2174V43.8261C38.0414 43.5724 37.9406 43.3291 37.7612 43.1498C37.5819 42.9704 37.3386 42.8696 37.085 42.8696H21.7821ZM45.6928 42.8696C45.5661 42.8678 45.4402 42.8912 45.3226 42.9385C45.205 42.9857 45.098 43.0559 45.0077 43.1449C44.9174 43.2339 44.8458 43.3399 44.7969 43.4569C44.7479 43.5738 44.7227 43.6993 44.7227 43.8261C44.7227 43.9529 44.7479 44.0784 44.7969 44.1953C44.8458 44.3122 44.9174 44.4183 45.0077 44.5073C45.098 44.5963 45.205 44.6665 45.3226 44.7137C45.4402 44.761 45.5661 44.7844 45.6928 44.7826H57.1699C57.2966 44.7844 57.4225 44.761 57.5401 44.7137C57.6577 44.6665 57.7647 44.5963 57.855 44.5073C57.9453 44.4183 58.0169 44.3122 58.0658 44.1953C58.1148 44.0784 58.14 43.9529 58.14 43.8261C58.14 43.6993 58.1148 43.5738 58.0658 43.4569C58.0169 43.3399 57.9453 43.2339 57.855 43.1449C57.7647 43.0559 57.6577 42.9857 57.5401 42.9385C57.4225 42.8912 57.2966 42.8678 57.1699 42.8696H45.6928ZM22.7386 44.7826H36.1285V56.2609H22.7386V44.7826ZM41.9586 48.6087H61.0871V60.087H41.9586V48.6087ZM45.6778 51.4652C45.4245 51.4691 45.1831 51.5735 45.0066 51.7552C44.8301 51.937 44.7329 52.1814 44.7364 52.4348V57.2174C44.7346 57.3441 44.758 57.47 44.8052 57.5876C44.8525 57.7052 44.9227 57.8123 45.0117 57.9025C45.1007 57.9928 45.2067 58.0645 45.3236 58.1134C45.4406 58.1623 45.566 58.1875 45.6928 58.1875C45.8195 58.1875 45.945 58.1623 46.062 58.1134C46.1789 58.0645 46.2849 57.9928 46.3739 57.9025C46.4629 57.8123 46.5331 57.7052 46.5803 57.5876C46.6276 57.47 46.651 57.3441 46.6492 57.2174V52.4348C46.651 52.3068 46.627 52.1798 46.5788 52.0612C46.5306 51.9427 46.4591 51.835 46.3685 51.7446C46.2779 51.6542 46.1701 51.5829 46.0515 51.5349C45.9329 51.4869 45.8058 51.4632 45.6778 51.4652Z" fill="white"/>
</svg>
