<svg width="32" height="32" viewBox="0 0 32 32" fill="none" xmlns="http://www.w3.org/2000/svg">
<rect width="32" height="32" fill="#33322F"/>
<path fill-rule="evenodd" clip-rule="evenodd" d="M16 15.25C14.7573 15.25 13.75 14.2427 13.75 13C13.75 11.7572 14.7573 10.75 16 10.75C17.2428 10.75 18.25 11.7572 18.25 13C18.25 14.2427 17.2428 15.25 16 15.25ZM16 9.25C13.9293 9.25 12.25 10.9285 12.25 13C12.25 15.0715 13.9293 16.75 16 16.75C18.0708 16.75 19.75 15.0715 19.75 13C19.75 10.9285 18.0708 9.25 16 9.25ZM16 25.75C14.7528 25.7567 8.5 16.1357 8.5 13C8.5 8.8585 11.8578 5.5 16 5.5C20.1422 5.5 23.5 8.8585 23.5 13C23.5 16.0937 17.2278 25.7567 16 25.75ZM16 4C11.0298 4 7 8.02975 7 13C7 16.7635 14.5038 28.0082 16 28C17.473 28.0082 25 16.7125 25 13C25 8.02975 20.9703 4 16 4Z" fill="white"/>
</svg>
