<svg width="19" height="19" viewBox="0 0 19 19" fill="none" xmlns="http://www.w3.org/2000/svg">
<g clip-path="url(#clip0_1_23)">
<path d="M3.18774 18.24C11.5009 18.24 18.24 11.5009 18.24 3.18778C18.24 2.81272 18.2263 2.44086 18.1993 2.07269C18.1684 1.65015 18.1529 1.43889 18.0422 1.24656C17.9505 1.08728 17.7879 0.936231 17.6224 0.856393C17.4225 0.76001 17.1894 0.76001 16.7231 0.76001H13.9872C13.5951 0.76001 13.399 0.76001 13.231 0.824541C13.0825 0.881541 12.9503 0.974132 12.846 1.09417C12.728 1.23005 12.661 1.41431 12.527 1.78279L11.3945 4.89699C11.2386 5.32572 11.1607 5.54008 11.1739 5.74346C11.1855 5.9228 11.2469 6.09537 11.3507 6.24199C11.4686 6.40826 11.6642 6.52562 12.0554 6.76033L13.3844 7.55778C12.2173 10.1302 10.1311 12.219 7.55774 13.3844L6.76027 12.0554C6.52559 11.6641 6.40824 11.4686 6.24203 11.3508C6.09535 11.2469 5.92283 11.1855 5.74347 11.1739C5.54009 11.1607 5.3257 11.2387 4.89691 11.3945L1.78281 12.5269C1.41436 12.661 1.22998 12.728 1.09417 12.8461C0.974165 12.9503 0.881445 13.0825 0.824598 13.231C0.759998 13.399 0.759998 13.5951 0.759998 13.9872V16.7231C0.759998 17.1894 0.759998 17.4226 0.856441 17.6224C0.936241 17.788 1.08725 17.9505 1.24655 18.0422C1.43891 18.1529 1.65011 18.1683 2.07267 18.1994C2.44089 18.2263 2.81276 18.24 3.18774 18.24Z" fill="#1E1E1E"/>
</g>
<defs>
<clipPath id="clip0_1_23">
<rect width="19" height="19" fill="white" transform="matrix(-1 0 0 1 19 0)"/>
</clipPath>
</defs>
</svg>
