<svg width="19" height="19" viewBox="0 0 19 19" fill="none" xmlns="http://www.w3.org/2000/svg">
<g clip-path="url(#clip0_2_46)">
<path d="M3.18775 18.24C11.5009 18.24 18.24 11.5009 18.24 3.18778C18.24 2.81272 18.2263 2.44086 18.1993 2.07268C18.1684 1.65014 18.1529 1.43888 18.0422 1.24655C17.9505 1.08727 17.7879 0.936223 17.6224 0.856385C17.4225 0.760002 17.1894 0.760002 16.7231 0.760002H13.9872C13.5951 0.760002 13.3991 0.760002 13.231 0.824534C13.0825 0.881534 12.9504 0.974125 12.846 1.09416C12.728 1.23005 12.661 1.4143 12.527 1.78279L11.3945 4.89699C11.2387 5.32571 11.1607 5.54008 11.1739 5.74345C11.1855 5.92279 11.2469 6.09536 11.3508 6.24198C11.4686 6.40825 11.6642 6.52561 12.0554 6.76032L13.3844 7.55778C12.2173 10.1302 10.1311 12.219 7.55775 13.3844L6.76028 12.0554C6.52559 11.6641 6.40825 11.4686 6.24204 11.3508C6.09536 11.2469 5.92284 11.1855 5.74348 11.1739C5.5401 11.1607 5.32571 11.2387 4.89691 11.3945L1.78281 12.5269C1.41437 12.661 1.22999 12.728 1.09418 12.8461C0.974173 12.9503 0.881453 13.0825 0.824606 13.231C0.760006 13.399 0.760006 13.5951 0.760006 13.9872V16.7231C0.760006 17.1894 0.760006 17.4225 0.856449 17.6223C0.936249 17.788 1.08726 17.9505 1.24656 18.0422C1.43891 18.1529 1.65012 18.1683 2.07268 18.1993C2.4409 18.2263 2.81277 18.24 3.18775 18.24Z" fill="white"/>
</g>
<defs>
<clipPath id="clip0_2_46">
<rect width="19" height="19" fill="white" transform="matrix(-1 0 0 1 19 0)"/>
</clipPath>
</defs>
</svg>
