<svg width="35" height="35" viewBox="0 0 35 35" fill="none" xmlns="http://www.w3.org/2000/svg">
<path d="M6.3055 33C21.0485 33 33 21.0484 33 6.30555C33 5.6404 32.9757 4.98092 32.9279 4.32798C32.873 3.57863 32.8456 3.20396 32.6492 2.86288C32.4865 2.5804 32.1983 2.31252 31.9047 2.17093C31.5502 2 31.1368 2 30.3099 2H25.4578C24.7625 2 24.4148 2 24.1167 2.11444C23.8535 2.21553 23.619 2.37974 23.4341 2.59261C23.2246 2.8336 23.1058 3.16037 22.8682 3.81386L20.8599 9.33676C20.5834 10.0971 20.4451 10.4772 20.4686 10.8379C20.4892 11.156 20.598 11.462 20.7822 11.722C20.9912 12.0169 21.3381 12.2251 22.0318 12.6413L24.3889 14.0555C22.319 18.6176 18.6192 22.322 14.0555 24.3889L12.6412 22.0318C12.225 21.3379 12.0169 20.9911 11.7221 20.7822C11.462 20.598 11.1561 20.4892 10.838 20.4686C10.4773 20.4451 10.0971 20.5834 9.33662 20.8599L3.81391 22.8681C3.16048 23.1059 2.8335 23.2246 2.59264 23.4341C2.37982 23.619 2.21538 23.8534 2.11456 24.1167C2 24.4148 2 24.7625 2 25.4578V30.3099C2 31.1368 2 31.5503 2.17104 31.9046C2.31256 32.1983 2.58037 32.4866 2.86288 32.6492C3.20401 32.8455 3.57857 32.8729 4.32797 32.9279C4.98099 32.9757 5.64048 33 6.3055 33Z" stroke="white" stroke-width="3" stroke-linecap="round" stroke-linejoin="round"/>
</svg>
